<?xml version="1.0" encoding="UTF-8" standalone="no"?> <svg id="filledoutline" xmlns="http://www.w3.org/2000/svg" width="100" height="100" viewBox="0 0 512 512"><path d="M236,478V36a12,12,0,0,1,12-12H480a12,12,0,0,1,12,12V478a10,10,0,0,1-10,10H246A10,10,0,0,1,236,478Z" style="fill:#74c0fc"/><path d="M420,44h0a12.116,12.116,0,0,1-12,12.229H320A12.116,12.116,0,0,1,308,44H252V472H476V44Z" style="fill:#a4d8ff"/><rect x="304" y="152" width="120" height="104" rx="10" ry="10" style="fill:#74c0fc"/><path d="M380,232l-6.73-40.38a12,12,0,1,0-18.54,0L348,232Z" style="fill:#74c0fc"/><path d="M280,343.5H440V304H280Z" style="fill:#74c0fc"/><path d="M176.337,150.717l-8.479,32.417,40.146,9.2L184,288h96l35.22-65.562a33.141,33.141,0,0,0-22.614-48.164Z" style="fill:#855ef7"/><path d="M184,288l-54.408,38.085A60,60,0,0,0,104,375.239V472L85.5,484.336A2,2,0,0,0,86.605,488H152V368l96-80Z" style="fill:#0e3e86"/><path d="M256,376l24-88H232l-16.522,71.6a60,60,0,0,0,16.037,55.918L288,472l-18.5,12.336A2,2,0,0,0,270.605,488H336v-7.1a24.592,24.592,0,0,0-5.7-15.743Z" style="fill:#0e3e86"/><path d="M396,328a4,4,0,1,1,4-4A4,4,0,0,1,396,328Zm0-4v0Z" style="fill:#74c0fc"/><path d="M420,328a4,4,0,1,1,4-4A4,4,0,0,1,420,328Zm0-4v0Z" style="fill:#74c0fc"/><path d="M372,328a4,4,0,1,1,4-4A4,4,0,0,1,372,328Zm0-4v0Z" style="fill:#74c0fc"/><path d="M348,328a4,4,0,1,1,4-4A4,4,0,0,1,348,328Zm0-4v0Z" style="fill:#74c0fc"/><path d="M324,328a4,4,0,1,1,4-4A4,4,0,0,1,324,328Zm0-4v0Z" style="fill:#74c0fc"/><path d="M300,328a4,4,0,1,1,4-4A4,4,0,0,1,300,328Zm0-4v0Z" style="fill:#74c0fc"/><polygon points="247.307 142.464 247.307 165.096 255.375 178.875 271.307 169.959 271.307 141.464 247.307 142.464" style="fill:#ff99c0"/><path d="M271.307,112h-36v28.083A11.916,11.916,0,0,0,247.224,152h7.416a16.667,16.667,0,0,0,16.667-16.667Z" style="fill:#ff99c0"/><path d="M223.654,103v12.868a10,10,0,0,0,11.908,9.816L259.654,121v2.074a18.459,18.459,0,0,0,11.989,17.288l1.7.638-.285-23.138A15.889,15.889,0,0,0,257.453,99h0a15.885,15.885,0,0,0-5.43.957l-5.739,2.086a15.885,15.885,0,0,1-5.43.957Z" style="fill:#0e3e86"/><path d="M238.6,187.28,240.276,200l-5.8,13.617a161.164,161.164,0,0,1-41.817,57.842l-15.591,13.716-2.553,19.617,23.187-8.482,10.065-10.351a161.173,161.173,0,0,0,41.289-75.231l1.881-7.949,8.371-9.241-7.832-11.576Z" style="fill:#f2444e"/><path d="M288.27,190.94l-24.11,15.31,17.43,29.87-37.18,23.5a40,40,0,0,1-30.96,5.02L97,235.87a1,1,0,0,1-.68-1.36l13.34-31.7a.991.991,0,0,1,1.19-.57l110.3,30.91a1.024,1.024,0,0,0,.8-.12Z" style="fill:#ff99c0"/><path d="M128.816,40l-17.253,9.836C87.787,63.39,60.864,68.125,34.97,63.307h0L23.811,123.281c-8.4,45.132,3.828,91.13,32.714,123.084L84.634,277.46l37.412-18.9c38.446-19.426,66.4-57.949,74.8-103.081L208,95.5h0c-25.894-4.818-49.313-18.92-66.622-40.119Z" style="fill:#fcc419"/><path d="M67.573,234.381c-25.414-28.114-36.177-68.6-28.788-108.314l8.264-44.418a129.032,129.032,0,0,0,71.194-17.023l6.7-3.821,4.881,5.976a129.012,129.012,0,0,0,60.306,41.49l-8.264,44.418c-7.389,39.709-31.994,73.62-65.82,90.711L88.369,257.386Z" style="fill:#f5a000"/><path d="M-12,56V33.657L93.421,139.079a4,4,0,1,0,5.658-5.658L-6.343,28h22.51a4,4,0,0,0,0-8H-16c-.016,0-.032,0-.048,0a4.024,4.024,0,0,0-.734.074c-.122.024-.234.069-.351.1a3.787,3.787,0,0,0-.4.123,4.1,4.1,0,0,0-.377.2c-.1.057-.212.1-.312.17a4.017,4.017,0,0,0-.559.456c-.016.015-.035.026-.051.041s-.026.036-.042.053a3.936,3.936,0,0,0-.455.557,3.507,3.507,0,0,0-.176.324,3.826,3.826,0,0,0-.192.364,4.157,4.157,0,0,0-.13.42c-.032.109-.074.214-.1.327A4.067,4.067,0,0,0-20,24V56a4,4,0,0,0,4,4A4,4,0,0,0-12,56Z"/><path d="M33.6,92.564A4,4,0,0,0,25.729,91.1l-5.851,31.448a156.893,156.893,0,0,0,1.146,62.985,4,4,0,0,0,7.8-1.776,148.808,148.808,0,0,1-1.081-59.746Z"/><path d="M46.823,104.732a4,4,0,1,0-7.865-1.464l-4.106,22.067a137.136,137.136,0,0,0,.183,51.693,4,4,0,0,0,7.851-1.54,129.149,129.149,0,0,1-.169-48.689Z"/><path d="M114.244,239.83,89.29,252.439,70.541,231.7a112.872,112.872,0,0,1-18.369-27.73,4,4,0,1,0-7.24,3.4,120.872,120.872,0,0,0,19.674,29.691l20.8,23a4,4,0,0,0,4.771.888l27.679-13.985c34.932-17.652,60.334-52.623,67.948-93.551L194.064,109a4,4,0,0,0-2.711-4.541,124.6,124.6,0,0,1-58.429-40.211l-4.881-5.977a4,4,0,0,0-5.079-.944l-6.7,3.821A127.192,127.192,0,0,1,63.685,77.478a4,4,0,1,0,.63,7.975A135.266,135.266,0,0,0,120.224,68.1l3.763-2.146,2.741,3.356a132.842,132.842,0,0,0,58.835,41.646l-7.628,41C170.774,190.447,146.964,223.3,114.244,239.83Z"/><path d="M215.2,315.338a4,4,0,0,0-5.633-.512l-60.124,50.1A4,4,0,0,0,148,368V484H93.211l12-8H136a4,4,0,0,0,0-8H108V375.24a56.019,56.019,0,0,1,23.884-45.873l31.555-22.092a4,4,0,1,0-4.587-6.553L127.3,322.812A64.028,64.028,0,0,0,100,375.24v94.619L77.781,484.672A4,4,0,0,0,80,492h72a4,4,0,0,0,4-4V369.874l58.684-48.9A4,4,0,0,0,215.2,315.338Z"/><path d="M339.938,471.386a3.682,3.682,0,0,0-.073-.365,3.925,3.925,0,0,0-.117-.378c-.046-.125-.095-.246-.152-.365s-.113-.22-.178-.327a4.078,4.078,0,0,0-.239-.355c-.039-.051-.065-.107-.106-.157l-78.665-94.4,23.331-85.547,35.005-65.161a36.639,36.639,0,0,0,3.937-23.6c-.016-.128-.143-.79-.169-.928a30.129,30.129,0,0,0-2.881-8.846,36.766,36.766,0,0,0-26.2-20.6L275,166.475V110.546a17.547,17.547,0,0,0-25.948-15.4l-4.935,2.692A9.57,9.57,0,0,1,239.546,99H223a4,4,0,0,0-4,4v11.3a15.255,15.255,0,0,0,12,14.923v11.864a15.931,15.931,0,0,0,11.939,15.394l.02,3.245L213,153.405a4,4,0,1,0-1.651,7.828l32.355,6.821,3.351,11.692-11.657,4.23-5.457-15.041a4,4,0,0,0-7.521,2.729l6.822,18.8a4,4,0,0,0,5.125,2.4l.21-.077.829,6.276-5.369,12.608a160.074,160.074,0,0,1-7.2,14.677l-17.975-5.038,7.023-28a4,4,0,0,0-2.986-4.872l-16.261-3.73a157.491,157.491,0,0,0,8.141-28.5l11.159-59.973a4,4,0,0,0-3.2-4.664c-24.82-4.618-47.639-18.367-64.255-38.715L131.915,37.47a4,4,0,0,0-5.08-.945l-17.253,9.836A109.808,109.808,0,0,1,48.567,60.952a4,4,0,0,0-.481,7.986,117.8,117.8,0,0,0,65.457-15.627l14.315-8.161L138.28,57.913a117.6,117.6,0,0,0,65.069,40.718l-10.44,56.112c-8.169,43.906-35.334,81.38-72.666,100.243L85.555,272.513l-26.062-28.83a128.515,128.515,0,0,1-19.717-29.059,4,4,0,1,0-7.165,3.557,136.438,136.438,0,0,0,20.947,30.866l28.109,31.1a4,4,0,0,0,4.771.888l37.412-18.9a134.733,134.733,0,0,0,21.294-13.419l51.126,12.782c-2.275,2.264-4.617,4.473-7.022,6.588L173.657,281.8a4,4,0,0,0-1.324,2.485l-2.559,19.62a4,4,0,0,0,5.341,4.274l23.19-8.489a4.016,4.016,0,0,0,1.492-.967l6.538-6.72h68.428l-22.622,82.948a4,4,0,0,0,.786,3.613L332,473.448V484H277.211l12-8H316a4,4,0,0,0,0-8H289.657l-55.314-55.314a55.683,55.683,0,0,1-14.968-52.19l10.992-47.629a4,4,0,1,0-7.795-1.8L211.58,358.7a63.633,63.633,0,0,0,17.106,59.646l53.035,53.036-19.94,13.293A4,4,0,0,0,264,492h72a4,4,0,0,0,4-4V472c0-.065-.016-.125-.019-.189A4.024,4.024,0,0,0,339.938,471.386ZM227.991,266.141a64.519,64.519,0,0,0,29.867-9.76l29.75-18.811c.013-.008.023-.02.037-.028s.056-.028.083-.045l22.5-14.226L277.608,284H213.962q2.32-2.563,4.526-5.212C221.844,274.75,225.026,270.5,227.991,266.141Zm84.175-72.259.006.015c.01.018.018.038.028.056a30.153,30.153,0,0,1,2.133,5.9c.133.487.235,1,.328,1.527.69,5-.693,10.07-6,13.428l-21.7,13.718-13.4-22.963,20.863-13.24a4,4,0,0,0-4.287-6.755l-21.474,13.628-11.041-15.615,14.4-9.554,19.8,4.168A28.862,28.862,0,0,1,312.166,193.882Zm-49.954,9.4-9.587,6.085,1.2-5.042,5.062-5.588ZM227,114.3V107h12.546a17.611,17.611,0,0,0,8.4-2.142l4.935-2.692A9.545,9.545,0,0,1,267,110.546v19.6a12.451,12.451,0,0,1-4-9.15,4,4,0,0,0-4-4,3.955,3.955,0,0,0-.764.074l-22.548,4.384A7.3,7.3,0,0,1,227,114.3Zm12,26.787V128.964l16.555-3.219A20.438,20.438,0,0,0,267,139.62v28.13l-12.66,8.4-3.35-11.689-.049-7.731a27.886,27.886,0,0,0,9.141-2.915,4,4,0,0,0-3.723-7.082,19.644,19.644,0,0,1-9.234,2.27h-.208A7.925,7.925,0,0,1,239,141.083Zm-1.61,73.724,5.8-13.619a4,4,0,0,0,.285-2.092l-1.2-9.106,8.07-2.928,3.72,5.083-6.856,7.569a4,4,0,0,0-.928,1.761l-1.892,7.958c-.482,2.046-1.032,4.121-1.617,6.189l-8.071,5.123C235.629,218.781,236.536,216.805,237.39,214.807Zm-47.911-22.621,13.648,3.13-5.977,23.832-11.275-3.161a4,4,0,1,0-2.16,7.7L224.5,235.122a4.005,4.005,0,0,0,3.224-.475l39.07-24.8,13.4,22.948-26.606,16.823a56.57,56.57,0,0,1-43.563,7.061l-57.229-14.307A149.294,149.294,0,0,0,189.479,192.186Zm5.22,100.3L178.56,298.4l1.512-11.587,14.46-12.726c3.724-3.275,7.314-6.753,10.721-10.349l2.837.709a63.562,63.562,0,0,0,10.151,1.645c-1.9,2.592-3.866,5.132-5.906,7.587-2.6,3.133-5.363,6.2-8.2,9.116Z"/><path d="M99.377,147.631a4,4,0,0,0-5.616-.675l-108.732,85.4a4,4,0,0,0-.675,5.617A3.993,3.993,0,0,0-12.5,239.5a3.987,3.987,0,0,0,2.468-.854L98.7,153.247A4,4,0,0,0,99.377,147.631Z"/><path d="M248,484h-2a6.006,6.006,0,0,1-6-6V440a4,4,0,0,0-8,0v38a14.015,14.015,0,0,0,14,14h2a4,4,0,1,0,0-8Z"/><path d="M480,20H248a16.019,16.019,0,0,0-16,16V84a4,4,0,0,0,8,0V36a8.009,8.009,0,0,1,8-8H480a8.009,8.009,0,0,1,8,8V478a6.006,6.006,0,0,1-6,6H352a4,4,0,0,0,0,8H482a14.015,14.015,0,0,0,14-14V36A16.019,16.019,0,0,0,480,20Z"/><path d="M311.5,44a3.5,3.5,0,0,0-3.5-3.5H252a3.5,3.5,0,0,0-3.5,3.5V84a3.5,3.5,0,0,0,7,0V47.5h49.4a15.53,15.53,0,0,0,15.1,12h88a15.53,15.53,0,0,0,15.1-12h49.4v421H352.125a3.5,3.5,0,0,0,0,7H476a3.5,3.5,0,0,0,3.5-3.5V44a3.5,3.5,0,0,0-3.5-3.5H420a3.5,3.5,0,0,0-3.5,3.5,8.51,8.51,0,0,1-8.5,8.5H320A8.51,8.51,0,0,1,311.5,44Z"/><path d="M252,452.5a3.5,3.5,0,0,0-3.5,3.5v16a3.5,3.5,0,0,0,3.5,3.5h12a3.5,3.5,0,0,0,0-7h-8.5V456A3.5,3.5,0,0,0,252,452.5Z"/><path d="M388,44a4,4,0,0,0,0-8H340a4,4,0,0,0,0,8Z"/><path d="M310,256a4,4,0,0,0,4,4H414a14.015,14.015,0,0,0,14-14V162a14.015,14.015,0,0,0-14-14H404V124a40,40,0,0,0-80,0v24H314a14.015,14.015,0,0,0-14,14v2a4,4,0,0,0,8,0v-2a6.006,6.006,0,0,1,6-6H414a6.006,6.006,0,0,1,6,6v84a6.006,6.006,0,0,1-6,6H314A4,4,0,0,0,310,256Zm22-108V124a32,32,0,0,1,64,0v24Z"/><path d="M344.948,234.585A4,4,0,0,0,348,236h32a4,4,0,0,0,3.946-4.658L377.489,192.6a16,16,0,1,0-26.978,0l-6.457,38.738A4,4,0,0,0,344.948,234.585Zm12.871-45.507A7.9,7.9,0,0,1,356,184a8,8,0,0,1,16,0,7.907,7.907,0,0,1-1.818,5.078,4,4,0,0,0-.858,3.2L375.278,228H352.722l5.954-35.723A4,4,0,0,0,357.819,189.078Z"/><path d="M276,344a4,4,0,0,0,4,4H440a4,4,0,0,0,4-4V304a4,4,0,0,0-4-4H292a4,4,0,0,0,0,8H436v32H280A4,4,0,0,0,276,344Z"/><circle cx="396" cy="324" r="4"/><circle cx="420" cy="324" r="4"/><circle cx="372" cy="324" r="4"/><circle cx="348" cy="324" r="4"/><circle cx="324" cy="324" r="4"/><circle cx="300" cy="324" r="4"/></svg>
