<?xml version="1.0" encoding="utf-8"?>
<!-- Generator: Adobe Illustrator 24.3.0, SVG Export Plug-In . SVG Version: 6.00 Build 0)  -->
<svg version="1.1" id="Layer_1" xmlns="http://www.w3.org/2000/svg" xmlns:xlink="http://www.w3.org/1999/xlink" width="100" height="100"
	 viewBox="0 0 64 64" enable-background="new 0 0 64 64" xml:space="preserve">
<path fill="#606060" d="M58,56H6V23c0-1.7,1.3-3,3-3h46c1.7,0,3,1.3,3,3V56z"/>
<rect x="10" y="24" fill="#87BBFF" width="44" height="32"/>
<path fill="#707070" d="M3,56c0,2.8,2.2,5,5,5h48c2.8,0,5-2.2,5-5H3z"/>
<path fill="#606060" d="M56,59H8c-2,0-3.8-1.2-4.6-3H3c0,2.8,2.2,5,5,5h48c2.8,0,5-2.2,5-5h-0.4C59.8,57.8,58,59,56,59z"/>
<path fill="#FFFFFF" d="M45,38.9c0.1-0.5,0.6-0.9,1.1-0.9h1.6c0.8,0,1.4-0.5,1.4-1.2v-3.7c0-0.6-0.5-1.2-1.2-1.2h-1.8
	c-0.5,0-1-0.4-1.1-0.9c-0.3-0.9-0.6-1.8-1.1-2.6c-0.3-0.5-0.2-1,0.2-1.4l1.1-1.1c0.6-0.6,0.6-1.3,0.1-1.8l-2.5-2.5
	c-0.5-0.5-1.2-0.5-1.7,0L39.9,23c-0.4,0.4-0.9,0.4-1.4,0.2c-0.8-0.5-1.7-0.8-2.6-1.1c-0.5-0.1-0.9-0.6-0.9-1.1v-1.6
	c0-0.8-0.5-1.4-1.2-1.4h-3.7c-0.6,0-1.2,0.5-1.2,1.2v1.8c0,0.5-0.4,1-0.9,1.1c-0.9,0.3-1.8,0.6-2.6,1.1c-0.5,0.3-1,0.2-1.4-0.2
	L23,21.9c-0.6-0.6-1.3-0.6-1.8-0.1l-2.5,2.5c-0.5,0.5-0.5,1.2,0,1.7l1.2,1.2c0.4,0.4,0.4,0.9,0.2,1.4c-0.5,0.8-0.8,1.7-1.1,2.6
	c-0.1,0.5-0.6,0.9-1.1,0.9h-1.6c-0.8,0-1.4,0.5-1.4,1.2v3.7c0,0.6,0.5,1.2,1.2,1.2h1.8c0.5,0,1,0.4,1.1,0.9c0.3,0.9,0.6,1.8,1.1,2.6
	c0.3,0.5,0.2,1-0.2,1.4L18.9,44c-0.6,0.6-0.6,1.3-0.1,1.8l2.5,2.5c0.5,0.5,1.2,0.5,1.7,0l1.2-1.2c0.4-0.4,0.9-0.4,1.4-0.2
	c0.8,0.5,1.7,0.8,2.6,1.1c0.5,0.1,0.9,0.6,0.9,1.1v1.8c0,0.6,0.5,1.2,1.2,1.2h3.7c0.6,0,1.2-0.5,1.2-1.2v-1.8c0-0.5,0.4-1,0.9-1.1
	c0.9-0.3,1.8-0.6,2.6-1.1c0.5-0.3,1-0.2,1.4,0.2l1.1,1.1c0.6,0.6,1.3,0.6,1.8,0.1l2.5-2.5c0.5-0.5,0.5-1.2,0-1.7L44,42.9
	c-0.4-0.4-0.4-0.9-0.2-1.4C44.3,40.7,44.7,39.8,45,38.9z M32,44c-5,0-9-4-9-9c0-5,4-9,9-9s9,4,9,9C41,40,37,44,32,44z"/>
<path fill="#4C94FC" d="M19.9,29c0.1-0.2,0.2-0.3,0.2-0.5c0.3-0.5,0.2-1-0.2-1.4L18.9,26l-0.2,0.2c-0.5,0.5-0.5,1.2,0,1.7L19.9,29z"
	/>
<path fill="#4C94FC" d="M43.9,28.5c0.1,0.2,0.2,0.3,0.2,0.5l1-1c0.6-0.6,0.6-1.3,0.1-1.8L45.1,26L44,27.1
	C43.7,27.5,43.6,28,43.9,28.5z"/>
<path fill="#4C94FC" d="M32,26c-5,0-9,4-9,9c0,0.3,0,0.7,0.1,1c0.5-4.5,4.3-8,8.9-8s8.4,3.5,8.9,8c0-0.3,0.1-0.7,0.1-1
	C41,30,37,26,32,26z"/>
<path fill="#4C94FC" d="M45.1,46l-2.3,2.3c-0.5,0.5-1.2,0.5-1.8-0.1L39.9,47c-0.4-0.4-0.9-0.4-1.4-0.2c-0.8,0.5-1.7,0.8-2.6,1.1
	c-0.5,0.1-0.9,0.6-0.9,1.1v1.8c0,0.6-0.5,1.2-1.2,1.2h-3.7c-0.6,0-1.2-0.5-1.2-1.2v-1.8c0-0.5-0.4-1-0.9-1.1
	c-0.9-0.3-1.8-0.6-2.6-1.1c-0.5-0.3-1-0.2-1.4,0.2l-1.2,1.2c-0.5,0.5-1.2,0.5-1.7,0L18.9,46l0,0c-0.6,0.6-0.6,1.3-0.1,1.8l2.5,2.5
	c0.5,0.5,1.2,0.5,1.7,0l1.2-1.2c0.4-0.4,0.9-0.4,1.4-0.2c0.8,0.5,1.7,0.8,2.6,1.1c0.5,0.1,0.9,0.6,0.9,1.1v1.8
	c0,0.6,0.5,1.2,1.2,1.2h3.7c0.6,0,1.2-0.5,1.2-1.2v-1.8c0-0.5,0.4-1,0.9-1.1c0.9-0.3,1.8-0.6,2.6-1.1c0.5-0.3,1-0.2,1.4,0.2l1.1,1.1
	c0.6,0.6,1.3,0.6,1.8,0.1l2.5-2.5c0.5-0.5,0.5-1.2,0-1.7L45.1,46z"/>
<path fill="#4C94FC" d="M19,40.9c0.2,0.7,0.5,1.4,0.8,2.1l0.1-0.1c0.4-0.4,0.4-0.9,0.2-1.4c-0.5-0.8-0.8-1.7-1.1-2.6
	c-0.1-0.5-0.6-0.9-1.1-0.9h-1.8c-0.6,0-1.2-0.5-1.2-1.2v2c0,0.6,0.5,1.2,1.2,1.2h1.8C18.5,40,18.9,40.4,19,40.9z"/>
<path fill="#4C94FC" d="M47.6,38h-1.6c-0.5,0-1,0.4-1.1,0.9c-0.3,0.9-0.6,1.8-1.1,2.6c-0.3,0.5-0.2,1,0.2,1.4l0.1,0.1
	c0.3-0.7,0.6-1.4,0.8-2.1c0.1-0.5,0.6-0.9,1.1-0.9h1.6c0.8,0,1.4-0.5,1.4-1.2v-2C49,37.5,48.5,38,47.6,38z"/>
<path fill="#CECECE" d="M32,15c-0.6,0-1-0.4-1-1V9c0-0.6,0.4-1,1-1s1,0.4,1,1v5C33,14.6,32.6,15,32,15z"/>
<path fill="#CECECE" d="M48,17c-0.6,0-1-0.4-1-1V6c0-0.6,0.4-1,1-1h7c0.6,0,1,0.4,1,1s-0.4,1-1,1h-6v9C49,16.6,48.6,17,48,17z"/>
<path fill="#CECECE" d="M16,17c-0.6,0-1-0.4-1-1V7H9C8.4,7,8,6.6,8,6s0.4-1,1-1h7c0.6,0,1,0.4,1,1v10C17,16.6,16.6,17,16,17z"/>
<circle fill="#5BAF2F" cx="6" cy="6" r="4"/>
<circle fill="#F46240" cx="32" cy="6" r="4"/>
<circle fill="#F2C341" cx="58" cy="6" r="4"/>
</svg>
